<svg width="136" height="56" viewBox="0 0 136 56" fill="none" xmlns="http://www.w3.org/2000/svg">
<g clip-path="url(#clip0)">
<path d="M0 24.3354V29.2599C1.70283 29.2588 3.38919 29.5894 4.96257 30.233C6.53596 30.8766 7.96549 31.8204 9.16937 33.0106C10.373 34.2002 11.3275 35.6127 11.9783 37.1672C12.6292 38.7217 12.9636 40.3877 12.9625 42.0699H17.9421C17.9376 37.3684 16.0459 32.8607 12.6822 29.5359C9.3185 26.2111 4.75748 24.3408 0 24.3354H0Z" fill="white"/>
<path d="M24.9029 15.47H17.0114C21.0035 17.9701 24.3862 21.3125 26.9167 25.2574V17.4587C26.9163 16.9311 26.704 16.4253 26.3264 16.0524C25.9487 15.6794 25.4367 15.47 24.9029 15.47V15.47Z" fill="white"/>
<path d="M4.95833 15.47H0V19.9038C5.94699 19.9099 11.6487 22.2472 15.8539 26.4028C20.0591 30.5584 22.4244 36.1929 22.4308 42.07H26.9167V37.17C25.9024 31.7845 23.2617 26.8289 19.3421 22.9554C15.4225 19.082 10.4079 16.4723 4.95833 15.47V15.47Z" fill="white"/>
<path d="M39.1219 18.3982H35.9614V34.1412H39.1219V18.3982Z" fill="white"/>
<path d="M50.7429 25.2189C50.2167 24.7462 49.6008 24.3814 48.931 24.1458C47.492 23.6464 45.9237 23.6464 44.4847 24.1458C43.8146 24.3813 43.1984 24.746 42.6721 25.2189C42.156 25.6891 41.7436 26.2596 41.4609 26.8947C41.1686 27.5874 41.0182 28.3305 41.0182 29.0811C41.0182 29.8317 41.1686 30.5748 41.4609 31.2676C41.7425 31.9044 42.155 32.4765 42.6721 32.9476C43.1975 33.4207 43.8133 33.7853 44.4833 34.02C45.9222 34.5202 47.4907 34.5202 48.9295 34.02C49.5998 33.7853 50.2158 33.4207 50.7415 32.9476C51.2584 32.4763 51.6708 31.9043 51.9527 31.2676C52.2449 30.5748 52.3954 29.8317 52.3954 29.0811C52.3954 28.3305 52.2449 27.5874 51.9527 26.8947C51.6702 26.2598 51.2584 25.6894 50.7429 25.2189ZM48.5725 30.9351C48.0607 31.3907 47.3963 31.6428 46.7075 31.6428C46.0187 31.6428 45.3542 31.3907 44.8424 30.9351C44.4123 30.4103 44.1776 29.7554 44.1776 29.0801C44.1776 28.4047 44.4123 27.7498 44.8424 27.2251C45.3542 26.7695 46.0187 26.5173 46.7075 26.5173C47.3963 26.5173 48.0607 26.7695 48.5725 27.2251C49.0027 27.7498 49.2374 28.4047 49.2374 29.0801C49.2374 29.7554 49.0027 30.4103 48.5725 30.9351V30.9351Z" fill="white"/>
<path d="M62.0896 25.3541H62.05C61.9038 25.1513 61.7341 24.9662 61.5442 24.8025C61.3143 24.6014 61.0596 24.4298 60.7863 24.2915C60.0955 23.9412 59.3286 23.7627 58.5522 23.7714C57.8718 23.7596 57.199 23.9135 56.593 24.2194C56.0283 24.5083 55.5297 24.9088 55.1281 25.3961C54.7186 25.8983 54.4045 26.4696 54.2009 27.0824C53.9845 27.7137 53.8742 28.3758 53.8744 29.0424C53.8664 29.7579 53.9878 30.469 54.2328 31.1424C54.4548 31.7568 54.8009 32.3203 55.25 32.7986C55.6974 33.2666 56.2404 33.6353 56.843 33.8801C57.4982 34.144 58.2004 34.2749 58.9078 34.2651C59.4311 34.2562 59.9484 34.1539 60.435 33.9634C60.9806 33.7589 61.4533 33.4003 61.7943 32.9323H61.8368V33.9123C61.8486 34.2392 61.7941 34.5651 61.6765 34.8708C61.5588 35.1765 61.3804 35.4559 61.1518 35.6924C60.8617 35.946 60.5226 36.1388 60.1549 36.2592C59.7872 36.3795 59.3986 36.4248 59.0126 36.3924C58.4007 36.3991 57.7942 36.2785 57.2326 36.0382C56.6738 35.7914 56.1525 35.4692 55.6835 35.0806L53.9346 37.6601C54.6494 38.2291 55.485 38.6313 56.3791 38.8368C57.2637 39.0378 58.1686 39.139 59.0764 39.1385C61.0711 39.1385 62.5564 38.6422 63.5325 37.6496C64.5086 36.657 64.9969 35.2028 64.9974 33.2872V24.0213H62.0932L62.0896 25.3541ZM61.8998 29.9664C61.7751 30.2627 61.5924 30.5318 61.3622 30.7581C61.1278 30.9889 60.853 31.1758 60.5511 31.3097C60.2377 31.4472 59.8985 31.5183 59.5556 31.5183C59.2126 31.5183 58.8735 31.4472 58.56 31.3097C58.2622 31.1739 57.991 30.9872 57.7589 30.7581C57.5277 30.5298 57.3442 30.2588 57.2191 29.9604C57.0939 29.6621 57.0295 29.3423 57.0295 29.0193C57.0295 28.6963 57.0939 28.3765 57.2191 28.0781C57.3442 27.7798 57.5277 27.5087 57.7589 27.2805C57.9911 27.0514 58.2623 26.8645 58.56 26.7282C58.8736 26.5911 59.2127 26.5203 59.5556 26.5203C59.8985 26.5203 60.2376 26.5911 60.5511 26.7282C60.8529 26.8626 61.1276 27.0497 61.3622 27.2805C61.7099 27.6259 61.9465 28.0651 62.0421 28.5431C62.1378 29.021 62.0883 29.5162 61.8998 29.9664V29.9664Z" fill="white"/>
<path d="M76.8712 25.2189C76.345 24.7462 75.7291 24.3814 75.0593 24.1458C73.6202 23.6464 72.052 23.6464 70.613 24.1458C69.9429 24.3813 69.3267 24.746 68.8004 25.2189C68.2842 25.6891 67.8719 26.2596 67.5892 26.8947C67.2969 27.5874 67.1465 28.3305 67.1465 29.0811C67.1465 29.8317 67.2969 30.5748 67.5892 31.2676C67.8708 31.9044 68.2833 32.4765 68.8004 32.9476C69.3262 33.4209 69.9425 33.7855 70.613 34.02C72.0519 34.5202 73.6204 34.5202 75.0593 34.02C75.7295 33.7853 76.3455 33.4207 76.8712 32.9476C77.3883 32.4765 77.8007 31.9044 78.0824 31.2676C78.3746 30.5748 78.5251 29.8317 78.5251 29.0811C78.5251 28.3305 78.3746 27.5874 78.0824 26.8947C77.7997 26.2596 77.3873 25.6891 76.8712 25.2189V25.2189ZM74.7008 30.9351C74.189 31.3907 73.5246 31.6428 72.8358 31.6428C72.147 31.6428 71.4825 31.3907 70.9707 30.9351C70.5406 30.4103 70.3059 29.7554 70.3059 29.0801C70.3059 28.4047 70.5406 27.7498 70.9707 27.2251C71.4825 26.7695 72.147 26.5173 72.8358 26.5173C73.5246 26.5173 74.189 26.7695 74.7008 27.2251C75.131 27.7498 75.3657 28.4047 75.3657 29.0801C75.3657 29.7554 75.131 30.4103 74.7008 30.9351Z" fill="white"/>
<path d="M82.7177 24.0911H81.0227V34.141H82.7177V24.0911Z" fill="white"/>
<path d="M81.8706 18.9377C81.7062 18.9346 81.543 18.9655 81.3914 19.0283C81.2398 19.0911 81.1031 19.1844 80.9901 19.3024C80.8178 19.4741 80.7007 19.6924 80.6537 19.9298C80.6067 20.1671 80.6318 20.4129 80.7259 20.6362C80.8201 20.8594 80.979 21.0502 81.1826 21.1843C81.3862 21.3185 81.6255 21.3901 81.8702 21.3901C82.1149 21.3901 82.3542 21.3185 82.5578 21.1843C82.7614 21.0502 82.9203 20.8594 83.0145 20.6362C83.1086 20.4129 83.1337 20.1671 83.0867 19.9298C83.0397 19.6924 82.9226 19.4741 82.7503 19.3024C82.6375 19.1844 82.5009 19.091 82.3494 19.0282C82.1979 18.9654 82.0348 18.9346 81.8706 18.9377V18.9377Z" fill="white"/>
<path d="M95.256 25.3399C94.7792 24.8588 94.2056 24.4818 93.5723 24.2332C92.8772 23.9625 92.1356 23.8277 91.3885 23.8363C90.6847 23.8283 89.9888 23.983 89.3563 24.2878C88.7333 24.594 88.1818 25.0253 87.737 25.5541H87.6917V24.0911H85.9988V39.0375H87.6917V32.3595H87.7349C88.0947 32.972 88.6191 33.474 89.25 33.8099C89.9825 34.2152 90.8114 34.4192 91.6506 34.4007C92.3376 34.405 93.0183 34.2697 93.6502 34.0031C94.2604 33.7474 94.8112 33.371 95.2687 32.8971C95.7334 32.4129 96.0988 31.8443 96.3447 31.2227C96.8661 29.8668 96.8661 28.3689 96.3447 27.0129C96.0966 26.39 95.7267 25.8214 95.256 25.3399V25.3399ZM94.6582 30.5899C94.5002 31.0275 94.253 31.4284 93.932 31.7678C93.6109 32.1072 93.2228 32.378 92.7917 32.5632C91.8385 32.949 90.7699 32.949 89.8167 32.5632C89.385 32.378 88.9963 32.107 88.6749 31.7672C88.3535 31.4274 88.1061 31.026 87.9481 30.5878C87.6154 29.6354 87.6154 28.6002 87.9481 27.6478C88.1061 27.2097 88.3535 26.8082 88.6749 26.4684C88.9963 26.1286 89.385 25.8577 89.8167 25.6724C90.7699 25.2866 91.8385 25.2866 92.7917 25.6724C93.2234 25.8577 93.6121 26.1286 93.9335 26.4684C94.2549 26.8082 94.5023 27.2097 94.6603 27.6478C94.993 28.6002 94.993 29.6354 94.6603 30.5878L94.6582 30.5899Z" fill="white"/>
<path d="M105.274 29.12C104.952 28.882 104.593 28.6971 104.211 28.5726C103.792 28.4328 103.364 28.3215 102.929 28.2394C102.604 28.1844 102.281 28.1129 101.962 28.0252C101.679 27.949 101.402 27.8483 101.137 27.7242C100.924 27.6288 100.731 27.4938 100.57 27.3266C100.433 27.1771 100.359 26.9811 100.364 26.7792C100.36 26.5614 100.425 26.3478 100.549 26.1674C100.67 25.9892 100.83 25.8391 101.015 25.7271C101.214 25.6083 101.431 25.5214 101.657 25.4695C101.889 25.4128 102.127 25.3839 102.365 25.3834C102.82 25.3694 103.269 25.4851 103.658 25.7166C104.01 25.9353 104.304 26.2332 104.517 26.586L105.929 25.6627C105.616 25.0524 105.108 24.5615 104.483 24.2662C103.854 23.9774 103.168 23.8308 102.474 23.8371C102.003 23.836 101.535 23.9011 101.083 24.0303C100.65 24.1524 100.239 24.3414 99.8658 24.5903C99.5086 24.8286 99.2114 25.1444 98.9967 25.5136C98.7743 25.9068 98.6619 26.3513 98.6708 26.8016C98.6531 27.2424 98.7543 27.6799 98.9641 28.0693C99.1554 28.395 99.4225 28.6709 99.7432 28.8743C100.097 29.095 100.481 29.2649 100.884 29.379C101.319 29.5078 101.775 29.6224 102.253 29.7227C102.529 29.7801 102.797 29.8445 103.057 29.9159C103.301 29.9806 103.535 30.0782 103.752 30.2057C103.944 30.318 104.11 30.4679 104.241 30.646C104.372 30.8433 104.436 31.0762 104.426 31.3117C104.434 31.5592 104.366 31.8032 104.231 32.0117C104.096 32.2093 103.917 32.3744 103.709 32.4947C103.484 32.6274 103.238 32.7221 102.981 32.7747C102.72 32.8313 102.454 32.8601 102.188 32.8608C101.66 32.881 101.136 32.7544 100.678 32.4954C100.255 32.2299 99.884 31.893 99.5803 31.5L98.2345 32.5311C98.6511 33.1705 99.2425 33.6802 99.9402 34.0011C100.655 34.2816 101.42 34.4168 102.189 34.3987C102.69 34.3991 103.189 34.3416 103.677 34.2272C104.14 34.1213 104.582 33.936 104.981 33.6798C105.362 33.4298 105.677 33.0939 105.901 32.6998C106.145 32.2525 106.265 31.75 106.25 31.2424C106.264 30.806 106.174 30.3725 105.989 29.9761C105.821 29.6401 105.576 29.3471 105.274 29.12V29.12Z" fill="white"/>
<path d="M117.486 31.7575V24.0911H115.791V28.9911C115.796 29.5193 115.734 30.0462 115.606 30.5591C115.497 30.9987 115.305 31.414 115.039 31.7827C114.787 32.1254 114.45 32.3989 114.061 32.5772C113.613 32.7736 113.127 32.8692 112.638 32.8572C112.307 32.8836 111.974 32.8311 111.668 32.7041C111.361 32.577 111.09 32.3791 110.878 32.1271C110.47 31.5416 110.271 30.8393 110.311 30.13V24.0911H108.616V30.2973C108.611 30.8598 108.687 31.4202 108.844 31.9612C108.98 32.4407 109.222 32.8846 109.552 33.2611C109.883 33.6291 110.295 33.9166 110.756 34.1011C111.307 34.3132 111.894 34.4155 112.484 34.4021C112.881 34.4052 113.277 34.3508 113.658 34.2404C114.002 34.1414 114.33 33.997 114.635 33.8113C114.912 33.6425 115.165 33.4366 115.385 33.1995C115.583 32.9884 115.748 32.7495 115.874 32.4904H115.917C115.917 32.7774 115.925 33.0574 115.939 33.3304C115.954 33.6034 115.961 33.8754 115.961 34.1466H117.569C117.569 33.8166 117.555 33.4515 117.525 33.0511C117.496 32.6507 117.483 32.2195 117.486 31.7575Z" fill="white"/>
<path d="M135.804 26.2927C135.691 25.8065 135.468 25.3518 135.152 24.9627C134.833 24.5863 134.422 24.2971 133.957 24.1227C133.372 23.9142 132.753 23.8159 132.132 23.8329C131.457 23.8038 130.79 23.98 130.219 24.3376C129.691 24.7123 129.247 25.1915 128.916 25.7446C128.829 25.5724 128.717 25.3755 128.579 25.1538C128.425 24.9145 128.23 24.7036 128.003 24.5308C127.724 24.3211 127.413 24.1558 127.082 24.0408C126.638 23.8932 126.17 23.824 125.702 23.8364C125.305 23.8332 124.909 23.8877 124.529 23.9981C124.184 24.0971 123.855 24.2415 123.55 24.4272C123.273 24.5962 123.021 24.8021 122.801 25.039C122.603 25.25 122.438 25.489 122.312 25.7481H122.268C122.268 25.4611 122.261 25.1825 122.247 24.9081C122.233 24.6337 122.225 24.3642 122.225 24.0919H120.617C120.617 24.4219 120.632 24.787 120.66 25.1874C120.689 25.5878 120.704 26.0174 120.704 26.4761V34.1418H122.4V29.246C122.395 28.7175 122.457 28.1905 122.585 27.6773C122.693 27.2375 122.885 26.8222 123.152 26.4537C123.403 26.1109 123.74 25.8374 124.129 25.6592C124.577 25.4627 125.063 25.3671 125.553 25.3792C125.843 25.3548 126.134 25.4066 126.398 25.5296C126.661 25.6525 126.887 25.8422 127.052 26.0792C127.416 26.8158 127.573 27.6351 127.508 28.4522V34.1432H129.2V28.343C129.195 27.9297 129.265 27.5188 129.407 27.1299C129.532 26.7852 129.725 26.468 129.974 26.1961C130.208 25.9417 130.493 25.7371 130.81 25.5948C131.131 25.4513 131.479 25.378 131.831 25.3799C132.25 25.3649 132.667 25.4457 133.048 25.6158C133.349 25.7595 133.61 25.9736 133.808 26.2395C133.999 26.5028 134.133 26.8024 134.2 27.1194C134.273 27.4511 134.309 27.7895 134.308 28.1288V34.1418H136V28.0427C136.006 27.4538 135.941 26.8662 135.804 26.2927Z" fill="white"/>
</g>
<defs>
<clipPath id="clip0">
<rect width="136" height="56" fill="white"/>
</clipPath>
</defs>
</svg>
